# xmcd
#
# Track frame offsets:
#	150
#	9103
#	30646
#	48272
#	72613
#	96394
#	117657
#	150671
#	164380
#
# Disc length: 2475 seconds
#
# Revision: 0
# Processed by: cddbd v1.5.2PL0 Copyright (c) Steve Scherf et al.
# Submitted via: EasyCDDAExtractor 9.0.0.1
#
DISCID=7109a909
DTITLE=Ozzy Osbourne - Tower Theatre Upper Darby 02-12-88 Disc 1
DYEAR=1988
DGENRE=Hard Rock
TTITLE0=Carmina Burana
TTITLE1=I Don't Know
TTITLE2=Flying High Again
TTITLE3=Mr Crowley
TTITLE4=Shot In The Dark
TTITLE5=Bloodbath In Paradise
TTITLE6=Zakk Solo
TTITLE7=Sweet Leaf
TTITLE8=Iron Man
EXTD=
EXTT0=
EXTT1=
EXTT2=
EXTT3=
EXTT4=
EXTT5=
EXTT6=
EXTT7=
EXTT8=
PLAYORDER=
